<svg width="24" height="16" viewBox="0 0 24 16" fill="none" xmlns="http://www.w3.org/2000/svg">
<g clip-path="url(#clip0_70_195)">
<path d="M21.9348 0H1.99408C0.892778 0 0 0.89543 0 2V14C0 15.1046 0.892778 16 1.99408 16H21.9348C23.0361 16 23.9289 15.1046 23.9289 14V2C23.9289 0.89543 23.0361 0 21.9348 0Z" fill="#016FD0"/>
<path fill-rule="evenodd" clip-rule="evenodd" d="M13.7231 13.3938V7.69238L23.8406 7.70149V9.27638L22.6712 10.5298L23.8406 11.7947V13.403H21.9736L20.9813 12.3048L19.9961 13.4071L13.7231 13.3938Z" fill="#FFFFFE"/>
<path fill-rule="evenodd" clip-rule="evenodd" d="M14.3989 12.7687V8.31982H18.16V9.34471H15.6167V10.0404H18.0994V11.0482H15.6167V11.7315H18.16V12.7687H14.3989Z" fill="#016FD0"/>
<path fill-rule="evenodd" clip-rule="evenodd" d="M18.1412 12.7686L20.2224 10.5416L18.1411 8.31982H19.752L21.0237 9.72986L22.299 8.31982H23.8406V8.35483L21.8038 10.5416L23.8406 12.7055V12.7686H22.2835L20.9892 11.3444L19.7083 12.7686H18.1412Z" fill="#016FD0"/>
<path fill-rule="evenodd" clip-rule="evenodd" d="M14.1953 2.63184H16.6341L17.4907 4.58269V2.63184H20.5016L21.0208 4.09341L21.5417 2.63184H23.8409V8.33323H11.6904L14.1953 2.63184Z" fill="#FFFFFE"/>
<path fill-rule="evenodd" clip-rule="evenodd" d="M14.6571 3.25098L12.689 7.69615H14.0389L14.4102 6.80598H16.4221L16.7932 7.69615H18.1767L16.2167 3.25098H14.6571ZM14.8263 5.80841L15.4165 4.39334L16.0063 5.80841H14.8263Z" fill="#016FD0"/>
<path fill-rule="evenodd" clip-rule="evenodd" d="M18.1582 7.69557V3.25049L20.0557 3.25703L21.0321 5.98976L22.0148 3.25049H23.8409V7.69557L22.6658 7.706V4.65265L21.5566 7.69557H20.4839L19.3517 4.64222V7.69557H18.1582Z" fill="#016FD0"/>
</g>
<defs>
<clipPath id="clip0_70_195">
<rect width="23.9289" height="16" fill="white"/>
</clipPath>
</defs>
</svg>
