<svg width="59" height="24" viewBox="0 0 59 24" fill="none" xmlns="http://www.w3.org/2000/svg">
<g clip-path="url(#clip0_70_134)">
<path d="M10.6399 3.0942C9.95782 3.90485 8.86657 4.54424 7.77532 4.4529C7.63892 3.3568 8.17318 2.1922 8.79837 1.47288C9.4804 0.639391 10.674 0.0456708 11.6402 0C11.7538 1.14177 11.3105 2.2607 10.6399 3.0942ZM11.6288 4.66984C10.0488 4.5785 8.69607 5.57184 7.94583 5.57184C7.18423 5.57184 6.03614 4.71551 4.78575 4.73834C3.16025 4.76118 1.64841 5.68601 0.818606 7.1589C-0.886472 10.1047 0.375286 14.4662 2.02353 16.8639C2.8306 18.0514 3.79681 19.353 5.06993 19.3073C6.27486 19.2617 6.75228 18.5195 8.20728 18.5195C9.67364 18.5195 10.0942 19.3073 11.3674 19.2845C12.6859 19.2617 13.5158 18.0971 14.3228 16.9096C15.2436 15.5623 15.6187 14.2493 15.6414 14.1808C15.6187 14.1579 13.0952 13.1874 13.0724 10.2645C13.0497 7.82112 15.0617 6.65652 15.1526 6.58801C14.0159 4.89819 12.2426 4.71551 11.6288 4.66984ZM20.7567 1.35871V19.1589H23.5075V13.0733H27.3155C30.7939 13.0733 33.2378 10.6755 33.2378 7.20457C33.2378 3.73359 30.8393 1.35871 27.4065 1.35871H20.7567ZM23.5075 3.68792H26.679C29.0661 3.68792 30.4301 4.9667 30.4301 7.21598C30.4301 9.46527 29.0661 10.7555 26.6676 10.7555H23.5075V3.68792ZM38.2621 19.2959C39.9899 19.2959 41.5927 18.4167 42.3202 17.0238H42.377V19.1589H44.9233V10.2988C44.9233 7.72978 42.8772 6.07421 39.7285 6.07421C36.8071 6.07421 34.6474 7.75262 34.5678 10.059H37.0458C37.2504 8.96289 38.2621 8.24358 39.6489 8.24358C41.3313 8.24358 42.2747 9.0314 42.2747 10.4814V11.4634L38.8418 11.6689C35.6477 11.863 33.9199 13.176 33.9199 15.4596C33.9199 17.7659 35.7045 19.2959 38.2621 19.2959ZM39.001 17.1836C37.5346 17.1836 36.6025 16.4757 36.6025 15.3911C36.6025 14.2721 37.5005 13.6213 39.217 13.5186L42.2747 13.3245V14.3292C42.2747 15.9962 40.8652 17.1836 39.001 17.1836ZM48.3221 24C51.0047 24 52.2665 22.9724 53.3691 19.8554L58.2002 6.24548H55.4038L52.1642 16.7612H52.1074L48.8677 6.24548H45.9918L50.6524 19.2046L50.4023 19.9924C49.9817 21.3283 49.2997 21.8421 48.0834 21.8421C47.8674 21.8421 47.4468 21.8192 47.2763 21.7964V23.9315C47.4354 23.9772 48.1175 24 48.3221 24Z" fill="#09B285"/>
</g>
<defs>
<clipPath id="clip0_70_134">
<rect width="58.2" height="24" fill="white"/>
</clipPath>
</defs>
</svg>
