<!DOCTYPE svg PUBLIC "-//W3C//DTD SVG 1.1//EN" "http://www.w3.org/Graphics/SVG/1.1/DTD/svg11.dtd">
<!-- Uploaded to: SVG Repo, www.svgrepo.com, Transformed by: SVG Repo Mixer Tools -->
<svg width="148px" height="148px" viewBox="-14.64 -14.64 53.28 53.28" xmlns="http://www.w3.org/2000/svg" fill="none" stroke="#bfebb2" stroke-width="1.608" stroke-linecap="round" stroke-linejoin="miter" transform="rotate(0)">
<g id="SVGRepo_bgCarrier" stroke-width="0" transform="translate(3.959999999999999,3.959999999999999), scale(0.67)">
<path transform="translate(-14.64, -14.64), scale(1.665)" d="M16,31.87524385098368C19.181393601298712,32.10617131248991,21.622910698909564,29.02271368177861,23.707307455586935,26.608198637382543C25.434259159289667,24.607739340860487,25.728215661658986,21.93405739506392,26.702683608062024,19.47751270680842C27.76888419736811,16.78971840434558,30.759357396562596,14.237512023208435,29.678400585335645,11.555618236860735C28.58260683668274,8.836913460584647,24.243568236141304,9.631220552169488,21.982301001744478,7.766069058382314C19.454939504786832,5.681436158879777,19.25681347329977,0.6288718330101846,16.000000000000004,0.27332090539857745C12.848558041136235,-0.0707264651291794,11.202643925378364,4.0800582059236845,8.986936946938972,6.3473468066424275C7.199638792408296,8.176253233027044,5.536581649503156,9.952471787498162,4.335052048288475,12.209828654957226C2.8767888731432016,14.949520119611105,0.27073893876275035,17.84857158029939,1.308206972839626,20.773652927501676C2.3484031228318285,23.70642604034379,6.582201113240331,23.66934742061882,9.064896143145186,25.545351565164868C11.62464437045987,27.47957958173313,12.800062807433434,31.64297036789214,16,31.87524385098368" fill="#7ed0ec" strokewidth="0"/>
</g>
<g id="SVGRepo_tracerCarrier" stroke-linecap="round" stroke-linejoin="round"/>
<g id="SVGRepo_iconCarrier">
<circle cx="12" cy="12" r="10"/>
<circle cx="12" cy="12" r="10" fill="#bfebb2" opacity="0.1"/>
<polyline points="8 10 12 15 16 10"/>
</g>
</svg>