<svg width="24" height="16" viewBox="0 0 24 16" fill="none" xmlns="http://www.w3.org/2000/svg">
<g clip-path="url(#clip0_70_214)">
<path d="M21.9319 15.7499L21.934 15.7499C22.8862 15.7581 23.6675 14.9773 23.6794 14.0042L23.6794 2.0063C23.6756 1.53569 23.4889 1.08617 23.1607 0.756802C22.8334 0.428269 22.3922 0.246149 21.9319 0.250071L1.99448 0.250062C1.53629 0.246149 1.09509 0.428269 0.767761 0.756802C0.439602 1.08617 0.25285 1.53569 0.249032 2.00426L0.249023 13.9937C0.25285 14.4643 0.439602 14.9138 0.767761 15.2432C1.09509 15.5717 1.53629 15.7538 1.9966 15.7499H21.9319ZM21.9308 16.2499C21.9305 16.2499 21.9301 16.2499 21.9297 16.2499L21.9319 16.2499H21.9308Z" fill="white" stroke="black" stroke-opacity="0.2" stroke-width="0.5"/>
<path d="M12.5747 16.0002H21.9317C22.457 16.0046 22.9624 15.7995 23.3369 15.4301C23.7114 15.0607 23.9242 14.5573 23.9286 14.0305V11.6719C20.3952 13.7062 16.5632 15.167 12.5747 16.0002Z" fill="#F27712"/>
<path d="M23.1033 9.29643H22.2535L21.2963 8.03023H21.2055V9.29643H20.5124V6.15161H21.5356C22.336 6.15161 22.798 6.48264 22.798 7.0785C22.798 7.56678 22.5092 7.88126 21.9894 7.98057L23.1033 9.29643ZM22.0802 7.10333C22.0802 6.79712 21.8491 6.63988 21.4201 6.63988H21.2055V7.59161H21.4036C21.8491 7.59161 22.0802 7.42609 22.0802 7.10333ZM18.0865 6.15161H20.0503V6.68126H18.7796V7.38471H20.0008V7.92264H18.7796V8.77505H20.0503V9.30471H18.0865V6.15161ZM15.8587 9.37919L14.3569 6.14333H15.116L16.0649 8.26195L17.0221 6.14333H17.7647L16.2465 9.37919H15.8752H15.8587ZM9.57939 9.37092C8.52321 9.37092 7.69808 8.65092 7.69808 7.71574C7.69808 6.8054 8.53972 6.06885 9.59589 6.06885C9.89294 6.06885 10.1405 6.12678 10.4458 6.25919V6.98747C10.2146 6.75965 9.9035 6.63187 9.57939 6.63161C8.91928 6.63161 8.41595 7.11161 8.41595 7.71574C8.41595 8.35299 8.91103 8.80816 9.61239 8.80816C9.92594 8.80816 10.1652 8.70885 10.4458 8.46057V9.18885C10.1322 9.32126 9.86819 9.37092 9.57939 9.37092ZM7.48355 8.33643C7.48355 8.94885 6.98021 9.37092 6.25409 9.37092C5.72601 9.37092 5.34645 9.18885 5.02464 8.77505L5.47847 8.38609C5.63524 8.66747 5.89929 8.80816 6.22934 8.80816C6.54289 8.80816 6.76568 8.61781 6.76568 8.36954C6.76568 8.22885 6.69967 8.12126 6.55939 8.0385C6.40559 7.96365 6.24543 7.90271 6.08082 7.85643C5.42896 7.64954 5.20617 7.42609 5.20617 6.98747C5.20617 6.47436 5.68475 6.0854 6.31185 6.0854C6.70792 6.0854 7.06273 6.20954 7.35978 6.44126L6.99672 6.85505C6.85282 6.69683 6.64914 6.60671 6.43562 6.60678C6.13858 6.60678 5.92404 6.75574 5.92404 6.95436C5.92404 7.11988 6.04781 7.21092 6.46038 7.35161C7.25251 7.59988 7.48355 7.83161 7.48355 8.34471V8.33643ZM4.07574 6.15161H4.76885V9.30471H4.07574V6.15161ZM1.84787 9.30471H0.824707V6.15161H1.84787C2.97006 6.15161 3.74568 6.79712 3.74568 7.72402C3.74568 8.19574 3.51465 8.64264 3.11033 8.94057C2.76377 9.18885 2.37596 9.30471 1.83962 9.30471H1.84787ZM2.65651 6.93781C2.42547 6.75574 2.16143 6.68954 1.7076 6.68954H1.51782V8.77505H1.7076C2.15317 8.77505 2.43372 8.6923 2.65651 8.52678C2.8958 8.32816 3.03607 8.03023 3.03607 7.72402C3.03607 7.41781 2.8958 7.12816 2.65651 6.93781Z" fill="black"/>
<path d="M12.3768 6.06885C11.4692 6.06885 10.7266 6.79712 10.7266 7.69919C10.7266 8.65919 11.4362 9.37919 12.3768 9.37919C13.301 9.37919 14.0271 8.65092 14.0271 7.72402C14.0271 6.79712 13.3092 6.06885 12.3768 6.06885Z" fill="#F27712"/>
</g>
<defs>
<clipPath id="clip0_70_214">
<rect width="23.9289" height="16" fill="white"/>
</clipPath>
</defs>
</svg>
