<svg width="91" height="95" viewBox="0 0 91 95" fill="none" xmlns="http://www.w3.org/2000/svg">
<path d="M89.2779 57.1092C87.3124 54.0517 85.3469 51.1035 83.3814 48.046C82.9446 47.3908 82.9446 46.954 83.3814 46.2989C85.3469 43.3506 87.2032 40.4023 89.1688 37.454C91.4619 33.9598 90.2607 30.5747 86.3297 29.1552C83.0538 27.954 79.778 26.6437 76.5021 25.4425C75.8469 25.2242 75.5193 24.7874 75.5193 24.023C75.4101 20.4195 75.1917 16.8161 74.9734 13.3218C74.755 9.50001 71.8067 7.3161 68.094 8.29885C64.5998 9.17242 61.1056 10.1552 57.7205 11.1379C56.9561 11.3563 56.5193 11.1379 55.9734 10.592C53.7894 7.75288 51.4963 5.02299 49.3124 2.29311C46.9101 -0.764369 43.1975 -0.764369 40.686 2.29311C38.5021 5.02299 36.209 7.75288 34.1343 10.4828C33.5883 11.2471 33.0423 11.3563 32.1688 11.1379C28.7837 10.1552 25.3986 9.28162 22.9963 8.62644C18.3009 7.53449 15.4619 9.39081 15.2435 13.3218C15.0251 16.9253 14.8067 20.5287 14.6975 24.2414C14.6975 25.0057 14.3699 25.3333 13.7147 25.6609C10.3297 26.9713 6.94463 28.2816 3.55957 29.592C0.0653176 31.0115 -1.02664 34.3966 1.04807 37.5632C3.01359 40.6207 4.97911 43.569 6.94461 46.6264C7.38139 47.2816 7.38139 47.7184 6.94461 48.4828C4.86991 51.5402 2.90439 54.5977 0.938868 57.7644C-0.917451 60.7127 0.283689 64.2069 3.55955 65.5173C6.94461 66.8276 10.4389 68.1379 13.8239 69.4483C14.5883 69.6667 14.8067 70.1035 14.8067 70.8678C14.9159 74.3621 15.3526 77.7471 15.3526 81.2414C15.3526 84.7357 18.4101 87.9023 22.6687 86.592C26.0538 85.5 29.4388 84.7356 32.8239 83.7529C33.4791 83.5345 33.9159 83.6437 34.3526 84.2989C36.6457 87.1379 38.8296 89.8678 41.1227 92.7069C43.6342 95.7644 47.2377 95.7644 49.64 92.7069C51.9331 89.8678 54.117 87.1379 56.4101 84.2989C56.8469 83.7529 57.1745 83.5345 57.9388 83.7529C61.4331 84.7356 64.9273 85.6092 68.4216 86.592C72.025 87.5747 75.0825 85.3908 75.1917 81.6782C75.4101 78.0747 75.6285 74.4713 75.7377 70.7586C75.7377 69.8851 76.1745 69.5575 76.8296 69.3391C80.1055 68.1379 83.4905 66.8276 86.7664 65.5173C90.2607 63.7701 91.3527 60.2759 89.2779 57.1092ZM63.1803 39.2012L41.3412 61.0402C40.7952 61.5862 40.0308 62.023 39.2665 62.1322C39.0481 62.1322 38.7205 62.2414 38.5021 62.2414C37.5194 62.2414 36.4274 61.8046 35.663 61.0402L26.709 52.0862C25.1803 50.5575 25.1803 48.046 26.709 46.5172C28.2377 44.9885 30.7492 44.9885 32.278 46.5172L38.3929 52.6322L57.3929 33.6322C58.9216 32.1035 61.4331 32.1035 62.9619 33.6322C64.709 35.1609 64.709 37.6724 63.1803 39.2012Z" fill="#09B285"/>
</svg>
