<svg width="24" height="16" viewBox="0 0 24 16" fill="none" xmlns="http://www.w3.org/2000/svg">
<g clip-path="url(#clip0_70_169)">
<path d="M21.6853 0.25H2.2431C1.1418 0.25 0.249023 1.14543 0.249023 2.25V13.75C0.249023 14.8546 1.1418 15.75 2.2431 15.75H21.6853C22.7866 15.75 23.6794 14.8546 23.6794 13.75V2.25C23.6794 1.14543 22.7866 0.25 21.6853 0.25Z" fill="white" stroke="black" stroke-opacity="0.2" stroke-width="0.5"/>
<path d="M2.77902 5.91444C2.25743 5.62751 1.66214 5.39674 0.996582 5.23659L1.0245 5.11188H3.75337C4.12326 5.12489 4.42339 5.23651 4.52106 5.63071L5.11412 8.46659L5.29579 9.32073L6.95684 5.11188H8.75034L6.08435 11.2775H4.29076L2.77902 5.91444ZM10.0696 11.2841H8.3735L9.43436 5.11188H11.1304L10.0696 11.2841ZM16.2181 5.26277L15.9875 6.59559L15.8341 6.53004C15.5272 6.40525 15.122 6.28054 14.5706 6.29371C13.901 6.29371 13.6007 6.56277 13.5937 6.82546C13.5937 7.11441 13.957 7.30484 14.5502 7.58725C15.5274 8.02719 15.9807 8.56557 15.9739 9.26819C15.9602 10.5486 14.8016 11.3761 13.0219 11.3761C12.261 11.3694 11.5281 11.2181 11.1303 11.0476L11.3676 9.66205L11.591 9.76066C12.1424 9.99071 12.5052 10.089 13.1824 10.089C13.6707 10.089 14.1943 9.89838 14.2009 9.48488C14.2009 9.21565 13.9779 9.01851 13.3217 8.71646C12.6797 8.42087 11.8213 7.92848 11.8352 7.04198C11.8424 5.84042 13.0219 5 14.6969 5C15.353 5 15.8836 5.13789 16.2181 5.26277ZM18.4724 9.09749H19.8822C19.8125 8.78889 19.4913 7.31147 19.4913 7.31147L19.3727 6.77964C19.289 7.00943 19.1425 7.38373 19.1496 7.37056C19.1496 7.37056 18.6121 8.7429 18.4724 9.09749ZM20.566 5.11188L21.9344 11.284H20.3639C20.3639 11.284 20.2103 10.5748 20.1616 10.3581H17.9839C17.9209 10.5222 17.6279 11.284 17.6279 11.284H15.8483L18.3676 5.62399C18.5422 5.22342 18.8495 5.11188 19.2541 5.11188H20.566Z" fill="#171E6C"/>
</g>
<defs>
<clipPath id="clip0_70_169">
<rect width="23.9289" height="16" fill="white"/>
</clipPath>
</defs>
</svg>
